<?xml version="1.0" encoding="UTF-8" standalone="no"?>
<!-- Created with Inkscape (http://www.inkscape.org/) -->

<svg
   width="800"
   height="600"
   viewBox="0 0 211.66667 158.75"
   version="1.1"
   id="svg5"
   shape-rendering="crispEdges"
   inkscape:version="1.1.1 (3bf5ae0d25, 2021-09-20)"
   sodipodi:docname="mockup.svg"
   xmlns:inkscape="http://www.inkscape.org/namespaces/inkscape"
   xmlns:sodipodi="http://sodipodi.sourceforge.net/DTD/sodipodi-0.dtd"
   xmlns="http://www.w3.org/2000/svg"
   xmlns:svg="http://www.w3.org/2000/svg">
  <sodipodi:namedview
     id="namedview7"
     pagecolor="#ffffff"
     bordercolor="#111111"
     borderopacity="1"
     inkscape:pageshadow="0"
     inkscape:pageopacity="0"
     inkscape:pagecheckerboard="false"
     inkscape:document-units="px"
     showgrid="false"
     width="800px"
     units="px"
     borderlayer="true"
     inkscape:showpageshadow="true"
     inkscape:zoom="0.72693603"
     inkscape:cx="-57.776748"
     inkscape:cy="202.90644"
     inkscape:window-width="1888"
     inkscape:window-height="1011"
     inkscape:window-x="1928"
     inkscape:window-y="2154"
     inkscape:window-maximized="0"
     inkscape:current-layer="layer1" />
  <defs
     id="defs2">
    <rect
       x="-6.674576"
       y="-10.523278"
       width="264.87525"
       height="66.53132"
       id="rect18323" />
    <rect
       x="515.76895"
       y="59.904477"
       width="248.56794"
       height="50.786643"
       id="rect16469" />
    <rect
       x="297.36619"
       y="471.93639"
       width="228.99073"
       height="67.254151"
       id="rect12657" />
    <rect
       x="59.587897"
       y="402.99502"
       width="202.71861"
       height="68.035923"
       id="rect11529" />
    <rect
       x="196.49265"
       y="227.43356"
       width="351.21393"
       height="80.268965"
       id="rect3953" />
    <rect
       x="74.759617"
       y="131.04348"
       width="295.74194"
       height="164.39822"
       id="rect1087" />
  </defs>
  <g
     inkscape:label="Ebene 1"
     inkscape:groupmode="layer"
     id="layer1">
    <text
       xml:space="preserve"
       transform="matrix(1.1599301,0,0,1.1599301,-83.275206,-170.66095)"
       id="text1085"
       style="font-style:normal;font-weight:normal;font-size:96px;line-height:1.25;font-family:sans-serif;letter-spacing:0px;word-spacing:0px;white-space:pre;shape-inside:url(#rect1087);fill:#000000;fill-opacity:1;stroke:none"><tspan
         x="74.759766"
         y="219.88804"
         id="tspan7179"><tspan
           style="font-family:'Tall Films';-inkscape-font-specification:'Tall Films'"
           id="tspan7177">14:56</tspan></tspan></text>
    <text
       xml:space="preserve"
       transform="matrix(0.26458334,0,0,0.26458334,55.40848,25.259791)"
       id="text3951"
       style="font-style:normal;font-weight:normal;font-size:40px;line-height:1.25;font-family:sans-serif;letter-spacing:0px;word-spacing:0px;white-space:pre;shape-inside:url(#rect3953);fill:#000000;fill-opacity:1;stroke:none"><tspan
         x="196.49219"
         y="264.45237"
         id="tspan7181">teilweiße Bewölkt</tspan></text>
    <text
       xml:space="preserve"
       style="font-style:normal;font-weight:normal;font-size:10.5833px;line-height:1.25;font-family:sans-serif;letter-spacing:0px;word-spacing:0px;fill:#000000;fill-opacity:1;stroke:none;stroke-width:0.264583"
       x="130.73373"
       y="114.36713"
       id="text8973"><tspan
         sodipodi:role="line"
         id="tspan8971"
         style="stroke-width:0.264583"
         x="130.73373"
         y="114.36713">4.1°C</tspan></text>
    <text
       xml:space="preserve"
       transform="matrix(0.26458334,0,0,0.26458334,116.1921,10.779341)"
       id="text11527"
       style="font-style:normal;font-weight:normal;font-size:40px;line-height:1.25;font-family:sans-serif;letter-spacing:0px;word-spacing:0px;white-space:pre;shape-inside:url(#rect11529);fill:#000000;fill-opacity:1;stroke:none"><tspan
         x="59.587891"
         y="440.01292"
         id="tspan7183">95%</tspan></text>
    <text
       xml:space="preserve"
       transform="matrix(0.26458334,0,0,0.26458334,53.533089,4.3326356)"
       id="text12655"
       style="font-style:normal;font-weight:normal;font-size:40px;line-height:1.25;font-family:sans-serif;letter-spacing:0px;word-spacing:0px;white-space:pre;shape-inside:url(#rect12657);fill:#000000;fill-opacity:1;stroke:none"><tspan
         x="297.36523"
         y="508.95433"
         id="tspan7185">1014hPa</tspan></text>
    <text
       xml:space="preserve"
       transform="matrix(0.338998,0,0,0.338998,-162.90872,73.848967)"
       id="text16467"
       style="font-style:normal;font-weight:normal;font-size:40px;line-height:1.25;font-family:sans-serif;letter-spacing:0px;word-spacing:0px;white-space:pre;shape-inside:url(#rect16469);fill:#000000;fill-opacity:1;stroke:none"><tspan
         x="515.76953"
         y="96.923076"
         id="tspan7187">05.01.2022</tspan></text>
    <text
       xml:space="preserve"
       transform="matrix(0.39953598,0,0,0.39953598,15.113099,112.46039)"
       id="text18321"
       style="font-style:normal;font-weight:normal;font-size:40px;line-height:1.25;font-family:sans-serif;letter-spacing:0px;word-spacing:0px;white-space:pre;shape-inside:url(#rect18323);fill:#000000;fill-opacity:1;stroke:none"><tspan
         x="-6.6738281"
         y="26.495342"
         id="tspan7189">Mittwoch</tspan></text>
    <path
       d="m 141.40797,46.251428 c 1.8162,0.479726 2.91275,2.364475 2.43301,4.180659 l -4.4548,16.551273 c -0.47973,1.850454 -2.36446,2.912754 -4.18065,2.433015 -1.85045,-0.479726 -2.91275,-2.364475 -2.36447,-4.180659 l 4.38626,-16.551286 c 0.47973,-1.850454 2.36447,-2.912741 4.18065,-2.433002 m 13.70708,0 c 1.81618,0.479726 2.91275,2.364475 2.433,4.180659 l -7.09341,26.488899 c -0.47973,1.884724 -2.36447,2.912754 -4.21492,2.433002 -1.81619,-0.548239 -2.91276,-2.364462 -2.433,-4.214916 l 7.12767,-26.454642 c 0.47972,-1.850454 2.36447,-2.912741 4.18066,-2.433002 m 13.70706,0 c 1.81618,0.479726 2.91275,2.364475 2.433,4.180659 l -4.45479,16.551273 c -0.47973,1.850454 -2.36448,2.912754 -4.18066,2.433015 -1.85046,-0.479726 -2.91276,-2.364475 -2.36447,-4.180659 l 4.38626,-16.551286 c 0.47972,-1.850454 2.36447,-2.912741 4.18066,-2.433002 m 0,-6.853523 V 35.97113 A 17.133831,17.133831 0 0 0 151.68827,18.837296 c -8.56691,0 -15.59178,6.236718 -16.92822,14.35816 -1.1308,-0.411212 -2.36447,-0.651075 -3.63238,-0.651075 a 10.280298,10.280298 0 0 0 -10.2803,10.280298 c 0,3.803704 2.05606,7.127669 5.14015,8.909596 v -0.03497 c 1.71339,0.959581 2.19314,3.118411 1.26796,4.694719 -0.95945,1.610578 -2.98128,2.193126 -4.69467,1.233636 v 0.03367 C 117.42066,54.714255 113.9939,49.162894 113.9939,42.823379 A 17.133831,17.133831 0 0 1 131.12772,25.68955 c 3.42678,-8.052903 11.30833,-13.70706 20.5606,-13.70706 11.75381,0 21.38302,9.115189 22.27399,20.663393 l 1.71338,-0.102318 a 13.707064,13.707064 0 0 1 13.70706,13.707099 c 0,5.140149 -2.74141,9.492144 -6.85353,11.856619 v 0 c -1.71338,0.925259 -3.73517,0.37689 -4.69467,-1.267958 -0.92526,-1.644847 -0.44553,-3.735177 1.26796,-4.69468 v 0.03497 c 2.05606,-1.165122 3.42676,-3.392543 3.42676,-5.928355 a 6.8535321,6.8535321 0 0 0 -6.85352,-6.853523 z"
       id="path80"
       style="stroke-width:3.42676" />
  </g>
</svg>
